# xmcd CD database generated by RipIT
#
# Track frame offsets:
# 150
# 36738
# 64481
# 84797
# 112681
# 124828
# 162851
# 171319
#
# Disc length: 3055 seconds
#
# Revision: 0
# Processed by: cddbd v1.5.2PL0 Copyright (c) Steve Scherf et al.
# Submitted via: RipIT 3.9.0 www.suwald.com/ripit/ripit.html on 2013-05-24 at 21:41
#
DISCID=660bed08
DTITLE=Eclipse - The best is yet to come
DYEAR=2000
DGENRE=
TTITLE0=Four the glory
TTITLE1=Daisychain blues
TTITLE2=Is this a new world
TTITLE3=Tell me why
TTITLE4=Regrets
TTITLE5=I hate you
TTITLE6=F.H.A.G.
TTITLE7=Circles
EXTD=
EXTT0=
EXTT1=
EXTT2=
EXTT3=
EXTT4=
EXTT5=
EXTT6=
EXTT7=
PLAYORDER=
